<?xml version="1.0" encoding="UTF-8" standalone="yes"?>
<!DOCTYPE svg PUBLIC "-//W3C//DTD SVG 1.1//EN" "http://www.w3.org/Graphics/SVG/1.1/DTD/svg11.dtd">

<svg width="1260" height="479" viewBox="0 0 1260 479" xmlns="http://www.w3.org/2000/svg" xmlns:xlink="http://www.w3.org/1999/xlink" version="1.1" baseProfile="full">
    <g transform="scale(1.000000,-1.000000) translate(0,-479)">
        <path d="M 1.000000 1.000000 L 1261.000000 1.000000 L 1261.000000 480.000000 L 1.000000 480.000000 Z" transform="scale(1.000000,1.000000) translate(-1.000000,-1.000000)" fill="#ffffff" opacity="1.000000"></path>
        <path d="M 380.139440 46.139800 L 384.999940 46.139800 L 384.999940 86.080000 L 0.999940 86.080000 L 0.999940 1.000000 L 28.428140 1.000000 L 62.532840 48.539900 L 83.659440 48.539900 L 83.659440 1.000000 L 96.099440 1.000000 L 96.099440 46.139800 L 132.128140 46.139800 L 136.953440 46.007100 L 141.637440 45.591800 L 146.112440 44.877600 L 150.372040 43.843400 L 154.405840 42.466700 L 158.196340 40.724800 L 161.718540 38.598900 L 164.940640 36.077100 L 167.827940 33.159100 L 170.349140 29.856000 L 172.483140 26.185800 L 174.220140 22.166700 L 175.560440 17.811900 L 176.509640 13.126200 L 177.074940 8.106900 L 177.259440 2.827200 L 177.259440 1.000000 L 210.939440 1.000000 L 210.939440 46.139800 L 243.499440 46.139800 L 243.499440 15.060000 L 258.819340 15.060000 L 258.819340 46.139800 L 291.499440 46.139800 L 291.499440 1.000000 L 304.485540 1.000000 L 320.271040 46.139800 L 351.497840 46.139800 L 367.149040 1.000000 L 380.139440 1.000000 Z M 143.499340 3.041800 L 143.430040 5.918700 L 143.232740 8.421000 L 142.917540 10.610100 L 142.500040 12.488900 L 141.999040 14.068300 L 141.433940 15.369900 L 140.824840 16.419500 L 140.178740 17.262400 L 139.488540 17.946000 L 138.729240 18.514200 L 137.863340 18.996900 L 136.855940 19.404600 L 135.682140 19.734500 L 134.415340 19.962900 L 130.944040 20.180000 L 128.659440 20.180000 L 128.659440 1.000000 L 143.499340 1.000000 Z M 334.139440 2.012900 L 333.816940 1.000000 L 334.461940 1.000000 Z" transform="scale(1.000000,1.000000) translate(144.460560,248.540000)" fill="#1747fe" opacity="1.000000"></path>
        <path d="M 192.940940 1.070200 L 194.825940 1.283200 L 195.751140 1.444400 L 196.662840 1.642700 L 197.559340 1.878400 L 198.439340 2.152100 L 199.301240 2.464300 L 200.143440 2.815300 L 200.964540 3.205600 L 201.763040 3.635600 L 202.537240 4.105900 L 203.285840 4.616800 L 204.007240 5.168800 L 204.699940 5.762500 L 205.362440 6.398100 L 205.993040 7.076100 L 206.590540 7.797100 L 207.153140 8.561500 L 207.679540 9.369600 L 208.168040 10.222100 L 208.617240 11.119200 L 209.025540 12.061500 L 209.391540 13.049400 L 209.713640 14.083400 L 209.990340 15.163900 L 210.220140 16.291400 L 210.401540 17.466300 L 210.532940 18.689000 L 210.612940 19.960100 L 210.639940 21.280000 L 210.639940 22.600000 L 210.615040 23.898000 L 210.540940 25.148600 L 210.419040 26.352200 L 210.250340 27.509300 L 210.036040 28.620100 L 209.777340 29.685200 L 209.475440 30.704900 L 209.131540 31.679600 L 208.746740 32.609800 L 208.322240 33.495800 L 207.859140 34.338100 L 207.358840 35.137000 L 206.822240 35.893000 L 206.250740 36.606500 L 205.645440 37.277800 L 205.007440 37.907500 L 204.338040 38.495800 L 203.638240 39.043200 L 202.909440 39.550100 L 202.152640 40.016900 L 201.369140 40.444100 L 200.559940 40.832000 L 199.726440 41.181000 L 198.869640 41.491500 L 197.990840 41.764000 L 197.091040 41.998800 L 196.171640 42.196400 L 195.233640 42.357200 L 194.278340 42.481500 L 193.306840 42.569800 L 191.319940 42.640000 L 189.398940 42.569700 L 187.513940 42.356700 L 186.588740 42.195500 L 185.677140 41.997200 L 184.780540 41.761500 L 183.900540 41.487800 L 183.038740 41.175600 L 182.196440 40.824600 L 181.375340 40.434300 L 180.576940 40.004300 L 179.802640 39.534000 L 179.054040 39.023100 L 178.332640 38.471100 L 177.639940 37.877500 L 176.977540 37.241800 L 176.346840 36.563800 L 175.749340 35.842800 L 175.186740 35.078400 L 174.660440 34.270300 L 174.171840 33.417800 L 173.722640 32.520700 L 173.314340 31.578400 L 172.948340 30.590500 L 172.626240 29.556500 L 172.349540 28.476000 L 172.119740 27.348500 L 171.938340 26.173600 L 171.806940 24.950900 L 171.726940 23.679800 L 171.699940 22.360000 L 171.699940 21.040000 L 171.724740 19.741900 L 171.798240 18.491300 L 171.919440 17.287700 L 172.087140 16.130600 L 172.300140 15.019800 L 172.557440 13.954700 L 172.857740 12.935000 L 173.199940 11.960300 L 173.582940 11.030100 L 174.005640 10.144100 L 174.466740 9.301800 L 174.965240 8.502900 L 175.499940 7.746900 L 176.069740 7.033400 L 176.673440 6.362100 L 177.309940 5.732500 L 177.978040 5.144100 L 178.676740 4.596700 L 179.404740 4.089800 L 180.160840 3.623000 L 180.944140 3.195800 L 181.753340 2.807900 L 182.587340 2.458900 L 183.444940 2.148400 L 184.325040 1.875900 L 185.226540 1.641100 L 186.148240 1.443500 L 187.089040 1.282700 L 188.047740 1.158400 L 189.023240 1.070100 L 191.019940 1.000000 Z M 57.280940 1.070200 L 59.165940 1.283200 L 60.091140 1.444400 L 61.002840 1.642700 L 61.899340 1.878400 L 62.779340 2.152100 L 63.641240 2.464300 L 64.483440 2.815300 L 65.304540 3.205600 L 66.103040 3.635600 L 66.877240 4.105900 L 67.625840 4.616800 L 68.347240 5.168800 L 69.039940 5.762500 L 69.702440 6.398100 L 70.333040 7.076100 L 70.930540 7.797100 L 71.493140 8.561500 L 72.019540 9.369600 L 72.508040 10.222100 L 72.957240 11.119200 L 73.365540 12.061500 L 73.731540 13.049400 L 74.053640 14.083400 L 74.330340 15.163900 L 74.560140 16.291400 L 74.741540 17.466300 L 74.872940 18.689000 L 74.952940 19.960100 L 74.979940 21.280000 L 74.979940 22.600000 L 74.955040 23.898000 L 74.880940 25.148600 L 74.759040 26.352200 L 74.590340 27.509300 L 74.376040 28.620100 L 74.117340 29.685200 L 73.815440 30.704900 L 73.471540 31.679600 L 73.086740 32.609800 L 72.662240 33.495800 L 72.199140 34.338100 L 71.698840 35.137000 L 71.162240 35.893000 L 70.590740 36.606500 L 69.985440 37.277800 L 69.347440 37.907500 L 68.678040 38.495800 L 67.978240 39.043200 L 67.249440 39.550100 L 66.492640 40.016900 L 65.709140 40.444100 L 64.899940 40.832000 L 64.066440 41.181000 L 63.209640 41.491500 L 62.330840 41.764000 L 61.431040 41.998800 L 60.511640 42.196400 L 59.573640 42.357200 L 58.618340 42.481500 L 57.646840 42.569800 L 55.659940 42.640000 L 53.738940 42.569700 L 51.853940 42.356700 L 50.928740 42.195500 L 50.017140 41.997200 L 49.120540 41.761500 L 48.240540 41.487800 L 47.378740 41.175600 L 46.536440 40.824600 L 45.715340 40.434300 L 44.916940 40.004300 L 44.142640 39.534000 L 43.394040 39.023100 L 42.672640 38.471100 L 41.979940 37.877500 L 41.317540 37.241800 L 40.686840 36.563800 L 40.089340 35.842800 L 39.526740 35.078400 L 39.000440 34.270300 L 38.511840 33.417800 L 38.062640 32.520700 L 37.654340 31.578400 L 37.288340 30.590500 L 36.966240 29.556500 L 36.689540 28.476000 L 36.459740 27.348500 L 36.278340 26.173600 L 36.146940 24.950900 L 36.066940 23.679800 L 36.039940 22.360000 L 36.039940 21.040000 L 36.064740 19.741900 L 36.138240 18.491300 L 36.259440 17.287700 L 36.427140 16.130600 L 36.640140 15.019800 L 36.897440 13.954700 L 37.197740 12.935000 L 37.539940 11.960300 L 37.922940 11.030100 L 38.345640 10.144100 L 38.806740 9.301800 L 39.305240 8.502900 L 39.839940 7.746900 L 40.409740 7.033400 L 41.013440 6.362100 L 41.649940 5.732500 L 42.318040 5.144100 L 43.016740 4.596700 L 43.744740 4.089800 L 44.500840 3.623000 L 45.284140 3.195800 L 46.093340 2.807900 L 46.927340 2.458900 L 47.784940 2.148400 L 48.665040 1.875900 L 49.566540 1.641100 L 50.488240 1.443500 L 51.429040 1.282700 L 52.387740 1.158400 L 53.363240 1.070100 L 55.359940 1.000000 Z M 22.355540 1.041100 L 24.060540 1.160300 L 25.627840 1.351200 L 27.069940 1.607500 L 28.399540 1.922800 L 29.629340 2.290900 L 30.771940 2.705400 L 31.839940 3.160000 L 31.839940 11.200000 L 30.184340 10.583100 L 29.247540 10.299200 L 28.224940 10.045000 L 27.106740 9.830000 L 25.883040 9.664300 L 24.544140 9.557700 L 23.079940 9.520000 L 21.741340 9.569000 L 20.513340 9.715400 L 19.392540 9.958200 L 18.375540 10.296200 L 17.459240 10.728400 L 16.640040 11.253900 L 15.914740 11.871400 L 15.279940 12.580000 L 14.732340 13.378500 L 14.268640 14.266000 L 13.885340 15.241500 L 13.579340 16.303700 L 13.347040 17.451700 L 13.185340 18.684500 L 13.090740 20.000900 L 13.059940 21.400000 L 13.059940 23.200000 L 13.102640 24.598100 L 13.229840 25.891400 L 13.440440 27.081900 L 13.733040 28.171500 L 14.106540 29.162400 L 14.559740 30.056500 L 15.091240 30.855800 L 15.699940 31.562500 L 16.384540 32.178400 L 17.143940 32.705600 L 17.976740 33.146200 L 18.881840 33.502100 L 19.857940 33.775500 L 20.903740 33.968200 L 22.018240 34.082300 L 23.199940 34.120000 L 24.453840 34.095000 L 25.614940 34.021500 L 26.697340 33.901600 L 27.714940 33.737500 L 28.681940 33.531100 L 29.612440 33.284600 L 30.520440 33.000200 L 31.419940 32.680000 L 31.419940 40.900000 L 30.520840 41.302000 L 29.526240 41.652800 L 28.424640 41.951500 L 27.204940 42.197400 L 25.855840 42.390000 L 24.366240 42.528400 L 22.724640 42.611900 L 20.919940 42.640000 L 18.867040 42.574400 L 16.877140 42.374100 L 15.908740 42.221700 L 14.959740 42.033600 L 14.031340 41.809200 L 13.124640 41.547800 L 12.240840 41.248600 L 11.381240 40.911100 L 10.546940 40.534500 L 9.739240 40.118200 L 8.959140 39.661500 L 8.208040 39.163800 L 7.487140 38.624300 L 6.797440 38.042500 L 6.140340 37.417500 L 5.516940 36.748900 L 4.928440 36.035800 L 4.376040 35.277600 L 3.860940 34.473800 L 3.384340 33.623400 L 2.947440 32.726000 L 2.551540 31.780900 L 2.197640 30.787300 L 1.887040 29.744600 L 1.621040 28.652200 L 1.400640 27.509300 L 1.227140 26.315300 L 1.101740 25.069500 L 1.025540 23.771300 L 0.999940 22.420000 L 0.999940 21.040000 L 1.021140 19.778900 L 1.084440 18.560500 L 1.189540 17.384700 L 1.335840 16.251200 L 1.523040 15.159900 L 1.750640 14.110700 L 2.018340 13.103200 L 2.325540 12.137500 L 2.672040 11.213200 L 3.057340 10.330200 L 3.480940 9.488300 L 3.942540 8.687500 L 4.441640 7.927300 L 4.977840 7.207800 L 5.550740 6.528800 L 6.159940 5.890000 L 6.805040 5.291200 L 7.485440 4.732400 L 8.201040 4.213300 L 8.951140 3.733700 L 9.735440 3.293500 L 10.553540 2.892500 L 11.404940 2.530600 L 12.289340 2.207500 L 13.206240 1.923000 L 14.155240 1.677100 L 15.135940 1.469400 L 16.147840 1.300000 L 17.190640 1.168400 L 18.263840 1.074700 L 19.367140 1.018600 L 20.499940 1.000000 Z M 363.579940 15.040000 L 369.339940 15.040000 L 371.186840 15.094700 L 372.924140 15.258900 L 374.550540 15.532000 L 376.064640 15.913700 L 377.465240 16.403700 L 378.750940 17.001700 L 379.350340 17.341000 L 379.920440 17.707200 L 380.461240 18.100200 L 380.972440 18.520000 L 381.453940 18.966400 L 381.905640 19.439600 L 382.327240 19.939400 L 382.718640 20.465700 L 383.079740 21.018600 L 383.410240 21.598100 L 383.710040 22.203900 L 383.979040 22.836200 L 384.216940 23.494800 L 384.423740 24.179800 L 384.742940 25.628500 L 384.935440 27.182000 L 384.999940 28.840000 L 384.938740 30.381700 L 384.754640 31.833500 L 384.447440 33.194100 L 384.016540 34.462100 L 383.754540 35.061000 L 383.461540 35.636300 L 383.137340 36.187800 L 382.781940 36.715300 L 382.395340 37.218700 L 381.977440 37.697800 L 381.528140 38.152400 L 381.047440 38.582500 L 380.535340 38.987700 L 379.991640 39.368000 L 379.416440 39.723100 L 378.809540 40.053000 L 377.500640 40.636300 L 376.064640 41.116500 L 374.500940 41.492300 L 372.809240 41.762300 L 370.989040 41.925300 L 369.039940 41.980000 L 352.299940 41.980000 L 352.299940 1.660000 L 363.579940 1.660000 Z M 320.259940 9.640000 L 333.459940 9.640000 L 336.159940 1.660000 L 347.679940 1.660000 L 333.699940 41.980000 L 321.639940 41.980000 L 307.539940 1.660000 L 317.739940 1.660000 Z M 294.699940 33.880000 L 305.259940 33.880000 L 305.259940 41.980000 L 272.739940 41.980000 L 272.739940 33.880000 L 283.359940 33.880000 L 283.359940 1.660000 L 294.699940 1.660000 Z M 226.299940 26.800000 L 226.539940 26.800000 L 240.939940 1.660000 L 251.679940 1.660000 L 251.679940 41.980000 L 242.079940 41.980000 L 242.079940 19.420000 L 241.899940 19.420000 L 228.879940 41.980000 L 216.699940 41.980000 L 216.699940 1.660000 L 226.299940 1.660000 Z M 151.059940 9.760000 L 133.839940 9.760000 L 133.839940 18.280000 L 146.859940 18.280000 L 146.859940 26.200000 L 133.839940 26.200000 L 133.839940 33.880000 L 150.519940 33.880000 L 150.519940 41.980000 L 122.679940 41.980000 L 122.679940 1.660000 L 151.059940 1.660000 Z M 98.871540 1.732000 L 99.971940 1.822500 L 101.041440 1.949500 L 102.079540 2.113500 L 103.085940 2.314500 L 104.060040 2.552900 L 105.001540 2.829000 L 105.909840 3.143000 L 106.784540 3.495000 L 107.625240 3.885500 L 108.431440 4.314600 L 109.202740 4.782600 L 109.938640 5.289700 L 110.638640 5.836300 L 111.302440 6.422500 L 111.929440 7.048500 L 112.519340 7.714800 L 113.071540 8.421400 L 113.585640 9.168700 L 114.061140 9.957000 L 114.497740 10.786400 L 114.894940 11.657200 L 115.252140 12.569600 L 115.569040 13.524000 L 115.845140 14.520600 L 116.080040 15.559600 L 116.273240 16.641300 L 116.424240 17.765900 L 116.532640 18.933800 L 116.598040 20.145000 L 116.619940 21.400000 L 116.619940 22.780000 L 116.598040 24.054500 L 116.532640 25.279600 L 116.424140 26.456000 L 116.273040 27.584300 L 116.079740 28.664900 L 115.844740 29.698600 L 115.568440 30.685800 L 115.251240 31.627100 L 114.893540 32.523200 L 114.495940 33.374700 L 114.058740 34.182000 L 113.582440 34.945800 L 113.067440 35.666600 L 112.514240 36.345200 L 111.923340 36.981900 L 111.294940 37.577500 L 110.629740 38.132400 L 109.927940 38.647300 L 109.190140 39.122800 L 108.416840 39.559400 L 107.608340 39.957800 L 106.765040 40.318500 L 105.887540 40.642000 L 104.976240 40.929000 L 104.031440 41.180100 L 103.053740 41.395800 L 102.043540 41.576700 L 101.001240 41.723400 L 98.822140 41.916600 L 96.519940 41.980000 L 81.039940 41.980000 L 81.039940 1.660000 L 96.579940 1.660000 Z M 190.322640 9.257800 L 189.445840 9.373600 L 188.629540 9.570800 L 187.873740 9.852800 L 187.178340 10.223000 L 186.543340 10.684900 L 185.968940 11.241900 L 185.454940 11.897500 L 185.001440 12.654900 L 184.608340 13.517800 L 184.275840 14.489500 L 184.003740 15.573400 L 183.792040 16.773000 L 183.640840 18.091600 L 183.550140 19.532800 L 183.519940 21.100000 L 183.519940 23.140000 L 183.550140 24.522400 L 183.640540 25.812400 L 183.790840 27.010500 L 184.000840 28.117100 L 184.270340 29.132700 L 184.598940 30.057600 L 184.986340 30.892400 L 185.432440 31.637400 L 185.936940 32.293200 L 186.499440 32.860100 L 187.119840 33.338500 L 187.797740 33.729000 L 188.533040 34.032000 L 189.325340 34.247800 L 190.174340 34.377000 L 191.079940 34.420000 L 192.036340 34.379500 L 192.925840 34.256600 L 193.749340 34.049000 L 194.507440 33.754300 L 195.200840 33.370400 L 195.830240 32.894900 L 196.396440 32.325500 L 196.899940 31.660000 L 197.341640 30.896000 L 197.722140 30.031300 L 198.042140 29.063600 L 198.302440 27.990600 L 198.503640 26.810000 L 198.646540 25.519600 L 198.731740 24.117000 L 198.759940 22.600000 L 198.759940 20.560000 L 198.729740 19.167000 L 198.639440 17.867700 L 198.489440 16.661600 L 198.279940 15.548100 L 198.011440 14.526700 L 197.684140 13.596900 L 197.298540 12.758200 L 196.854940 12.010000 L 196.353640 11.351700 L 195.795140 10.783000 L 195.179540 10.303200 L 194.507440 9.911800 L 193.779040 9.608300 L 192.994840 9.392200 L 192.154940 9.262900 L 191.259940 9.220000 Z M 54.662640 9.257800 L 53.785840 9.373600 L 52.969540 9.570800 L 52.213740 9.852800 L 51.518340 10.223000 L 50.883340 10.684900 L 50.308940 11.241900 L 49.794940 11.897500 L 49.341440 12.654900 L 48.948340 13.517800 L 48.615840 14.489500 L 48.343740 15.573400 L 48.132040 16.773000 L 47.980840 18.091600 L 47.890140 19.532800 L 47.859940 21.100000 L 47.859940 23.140000 L 47.890140 24.522400 L 47.980540 25.812400 L 48.130840 27.010500 L 48.340840 28.117100 L 48.610340 29.132700 L 48.938940 30.057600 L 49.326340 30.892400 L 49.772440 31.637400 L 50.276940 32.293200 L 50.839440 32.860100 L 51.459840 33.338500 L 52.137740 33.729000 L 52.873040 34.032000 L 53.665340 34.247800 L 54.514340 34.377000 L 55.419940 34.420000 L 56.376340 34.379500 L 57.265840 34.256600 L 58.089340 34.049000 L 58.847440 33.754300 L 59.540840 33.370400 L 60.170240 32.894900 L 60.736440 32.325500 L 61.239940 31.660000 L 61.681640 30.896000 L 62.062140 30.031300 L 62.382140 29.063600 L 62.642440 27.990600 L 62.843640 26.810000 L 62.986540 25.519600 L 63.071740 24.117000 L 63.099940 22.600000 L 63.099940 20.560000 L 63.069740 19.167000 L 62.979440 17.867700 L 62.829440 16.661600 L 62.619940 15.548100 L 62.351440 14.526700 L 62.024140 13.596900 L 61.638540 12.758200 L 61.194940 12.010000 L 60.693640 11.351700 L 60.135140 10.783000 L 59.519540 10.303200 L 58.847440 9.911800 L 58.119040 9.608300 L 57.334840 9.392200 L 56.494940 9.262900 L 55.599940 9.220000 Z M 363.579940 22.300000 L 363.579940 34.240000 L 367.959940 34.240000 L 368.623040 34.222000 L 369.240240 34.166700 L 369.811840 34.071900 L 370.338340 33.935300 L 370.820240 33.754700 L 371.257940 33.528000 L 371.651840 33.253000 L 372.002440 32.927500 L 372.310140 32.549200 L 372.575340 32.115900 L 372.798640 31.625600 L 372.980240 31.075900 L 373.120740 30.464700 L 373.220640 29.789800 L 373.280140 29.048900 L 373.299940 28.240000 L 373.282740 27.510800 L 373.229940 26.830500 L 373.139740 26.199000 L 373.010240 25.615900 L 372.839640 25.080900 L 372.626040 24.593900 L 372.367540 24.154500 L 372.062440 23.762500 L 371.708840 23.417500 L 371.304840 23.119400 L 370.848640 22.867900 L 370.338340 22.662800 L 369.772240 22.503600 L 369.148340 22.390300 L 368.464840 22.322500 L 367.719940 22.300000 Z M 92.319940 9.640000 L 92.319940 34.000000 L 96.039940 34.000000 L 97.047340 33.970200 L 97.998640 33.877500 L 98.892640 33.716400 L 99.728040 33.481500 L 100.503740 33.167600 L 101.218440 32.769100 L 101.870940 32.280900 L 102.459940 31.697500 L 102.984240 31.013500 L 103.442640 30.223600 L 103.833940 29.322400 L 104.156840 28.304600 L 104.410140 27.164900 L 104.592540 25.897700 L 104.702840 24.497900 L 104.739940 22.960000 L 104.739940 20.920000 L 104.707540 19.399100 L 104.610340 18.006300 L 104.448040 16.737500 L 104.220540 15.588400 L 103.927740 14.555000 L 103.569240 13.633100 L 103.145040 12.818600 L 102.654940 12.107500 L 102.098740 11.495400 L 101.476240 10.978300 L 100.787340 10.552200 L 100.031840 10.212800 L 99.209540 9.956000 L 98.320140 9.777600 L 97.363740 9.673700 L 96.339940 9.640000 Z M 322.419940 16.900000 L 326.679940 30.280000 L 326.919940 30.280000 L 331.179940 16.900000 Z" transform="scale(1.000000,1.000000) translate(144.460560,144.360000)" fill="#1747fe" opacity="1.000000"></path>
        <path d="M 37.120000 1.000000 L 58.120000 1.000000 L 58.120000 14.680000 L 68.920000 14.680000 L 68.920000 30.160000 L 58.120000 30.160000 L 58.120000 86.080000 L 44.560000 86.080000 L 1.000000 25.360000 L 1.000000 14.680000 L 37.120000 14.680000 Z M 24.640000 30.160000 L 37.360000 49.240000 L 37.360000 30.160000 Z M 103.120000 19.000000 L 103.120000 67.720000 L 110.560000 67.720000 C 121.600000 67.720000 127.960000 62.800000 127.960000 45.640000 L 127.960000 41.560000 C 127.960000 24.640000 122.440000 19.000000 111.160000 19.000000 Z M 80.560000 3.040000 L 111.640000 3.040000 C 136.720000 3.040000 151.720000 15.280000 151.720000 42.520000 L 151.720000 45.280000 C 151.720000 73.000000 136.720000 83.680000 111.520000 83.680000 L 80.560000 83.680000 Z M 195.400000 3.040000 L 217.960000 3.040000 L 217.960000 36.400000 L 243.280000 36.400000 L 243.280000 3.040000 L 265.960000 3.040000 L 265.960000 83.680000 L 243.280000 83.680000 L 243.280000 52.600000 L 217.960000 52.600000 L 217.960000 83.680000 L 195.400000 83.680000 Z M 313.360000 60.280000 L 313.840000 60.280000 L 322.360000 33.520000 L 304.840000 33.520000 Z M 275.080000 3.040000 L 295.480000 3.040000 L 300.520000 19.000000 L 326.920000 19.000000 L 332.320000 3.040000 L 355.360000 3.040000 L 327.400000 83.680000 L 303.280000 83.680000 Z M 387.160000 44.320000 L 387.160000 68.200000 L 395.920000 68.200000 C 403.240000 68.200000 406.600000 65.200000 406.600000 56.200000 C 406.600000 48.160000 403.720000 44.320000 395.440000 44.320000 Z M 364.600000 3.040000 L 387.160000 3.040000 L 387.160000 29.800000 L 398.680000 29.800000 C 418.960000 29.800000 430.000000 39.160000 430.000000 57.400000 C 430.000000 74.320000 419.560000 83.680000 398.080000 83.680000 L 364.600000 83.680000 Z M 463.600000 44.320000 L 463.600000 68.200000 L 472.360000 68.200000 C 479.680000 68.200000 483.040000 65.200000 483.040000 56.200000 C 483.040000 48.160000 480.160000 44.320000 471.880000 44.320000 Z M 441.040000 3.040000 L 463.600000 3.040000 L 463.600000 29.800000 L 475.120000 29.800000 C 495.400000 29.800000 506.440000 39.160000 506.440000 57.400000 C 506.440000 74.320000 496.000000 83.680000 474.520000 83.680000 L 441.040000 83.680000 Z M 537.160000 3.040000 L 559.720000 3.040000 L 559.720000 34.600000 L 585.040000 83.680000 L 564.400000 83.680000 L 550.240000 54.280000 L 549.880000 54.280000 L 535.480000 83.680000 L 511.600000 83.680000 L 537.160000 34.600000 Z M 626.080000 3.040000 L 648.640000 3.040000 L 648.640000 36.400000 L 673.960000 36.400000 L 673.960000 3.040000 L 696.640000 3.040000 L 696.640000 83.680000 L 673.960000 83.680000 L 673.960000 52.600000 L 648.640000 52.600000 L 648.640000 83.680000 L 626.080000 83.680000 Z M 747.760000 18.160000 C 737.440000 18.160000 732.280000 24.520000 732.280000 41.920000 L 732.280000 46.000000 C 732.280000 61.240000 737.440000 68.560000 747.400000 68.560000 C 757.960000 68.560000 762.760000 61.720000 762.760000 44.920000 L 762.760000 40.840000 C 762.760000 25.480000 757.600000 18.160000 747.760000 18.160000 Z M 747.280000 1.720000 C 767.920000 1.720000 786.520000 13.600000 786.520000 42.280000 L 786.520000 44.920000 C 786.520000 73.120000 769.360000 85.000000 747.880000 85.000000 C 727.240000 85.000000 708.640000 73.120000 708.640000 44.440000 L 708.640000 41.800000 C 708.640000 13.600000 725.680000 1.720000 747.280000 1.720000 Z M 833.080000 1.720000 C 856.000000 1.720000 866.560000 11.920000 866.560000 31.960000 L 866.560000 83.560000 L 846.400000 83.560000 L 846.400000 32.800000 C 846.400000 22.360000 842.680000 18.160000 833.800000 18.160000 C 824.920000 18.160000 820.720000 22.360000 820.720000 32.680000 L 820.720000 83.560000 L 798.040000 83.560000 L 798.040000 31.840000 C 798.040000 11.800000 809.800000 1.720000 833.080000 1.720000 Z M 903.640000 46.000000 L 903.640000 68.320000 L 911.800000 68.320000 C 920.080000 68.320000 923.320000 64.960000 923.320000 57.400000 C 923.320000 49.840000 920.200000 46.000000 912.160000 46.000000 Z M 881.320000 3.040000 L 903.880000 3.040000 L 903.880000 32.440000 L 912.280000 32.440000 L 926.920000 3.040000 L 950.440000 3.040000 L 932.440000 37.720000 L 932.440000 38.200000 C 940.840000 41.800000 945.760000 47.440000 945.760000 58.480000 C 945.760000 75.880000 935.560000 83.680000 915.160000 83.680000 L 881.320000 83.680000 Z" transform="scale(1.000000,1.000000) translate(165.000000,206.000000)" fill="#264d83" opacity="1.000000"></path>
    </g>
</svg>